<svg xmlns="http://www.w3.org/2000/svg" viewBox="0 0 512 512">
  <defs>
    <radialGradient id="bg" cx="30%" cy="18%" r="100%">
      <stop offset="0" stop-color="#ffffff"/>
      <stop offset="0.58" stop-color="#f6f8fb"/>
      <stop offset="1" stop-color="#dde2ea"/>
    </radialGradient>
    <linearGradient id="gold" x1="0" y1="0" x2="1" y2="1"><stop stop-color="#ffe486"/><stop offset="1" stop-color="#e9ad32"/></linearGradient>
    <linearGradient id="coral" x1="0" y1="0" x2="1" y2="1"><stop stop-color="#ffaaa1"/><stop offset="1" stop-color="#db625e"/></linearGradient>
    <linearGradient id="mint" x1="0" y1="0" x2="1" y2="1"><stop stop-color="#9be4bd"/><stop offset="1" stop-color="#4aa97a"/></linearGradient>
    <linearGradient id="sky" x1="0" y1="0" x2="1" y2="1"><stop stop-color="#9dd5ff"/><stop offset="1" stop-color="#4c91cf"/></linearGradient>
    <linearGradient id="core" x1="0" y1="0" x2="0" y2="1"><stop stop-color="#ffffff"/><stop offset=".55" stop-color="#f2f4f8"/><stop offset="1" stop-color="#d5dbe4"/></linearGradient>
    <linearGradient id="checkSage" x1="0" y1="0" x2="1" y2="1"><stop stop-color="#8fbea2"/><stop offset="1" stop-color="#56836b"/></linearGradient>
    <filter id="tileShadow" x="-30%" y="-30%" width="160%" height="180%"><feDropShadow dx="0" dy="14" stdDeviation="14" flood-color="#556171" flood-opacity=".24"/></filter>
    <filter id="coreShadow" x="-35%" y="-35%" width="170%" height="190%"><feDropShadow dx="0" dy="10" stdDeviation="12" flood-color="#8794a5" flood-opacity=".24"/></filter>
  </defs>
  <rect width="512" height="512" rx="112" fill="url(#bg)"/>
  <path d="M60 181C67 102 122 51 205 45" fill="none" stroke="#fff" stroke-opacity=".9" stroke-width="5"/>
  <path d="M449 328C440 410 389 458 310 469" fill="none" stroke="#aeb7c4" stroke-opacity=".22" stroke-width="4"/>
  <g filter="url(#tileShadow)">
    <rect x="78" y="78" width="168" height="168" rx="52" fill="url(#gold)"/>
    <rect x="266" y="78" width="168" height="168" rx="52" fill="url(#coral)"/>
    <rect x="78" y="266" width="168" height="168" rx="52" fill="url(#mint)"/>
    <rect x="266" y="266" width="168" height="168" rx="52" fill="url(#sky)"/>
  </g>
  <g fill="none" stroke="#fff" stroke-linecap="round" opacity=".28" stroke-width="3">
    <path d="M110 116c19-19 49-26 76-23"/><path d="M298 116c19-19 49-26 76-23"/>
    <path d="M110 304c19-19 49-26 76-23"/><path d="M298 304c19-19 49-26 76-23"/>
  </g>
  <circle cx="256" cy="256" r="94" fill="url(#core)" filter="url(#coreShadow)"/>
  <circle cx="256" cy="256" r="91" fill="none" stroke="#fff" stroke-opacity=".85" stroke-width="3"/>
  <path d="m211 258 30 31 63-71" fill="none" stroke="url(#checkSage)" stroke-linecap="round" stroke-linejoin="round" stroke-width="24"/>
</svg>
