<svg xmlns="http://www.w3.org/2000/svg" viewBox="0 0 512 512">
  <defs>
    <radialGradient id="bg" cx="34%" cy="22%" r="90%">
      <stop offset="0" stop-color="#36383d"/>
      <stop offset="0.55" stop-color="#1d1f23"/>
      <stop offset="1" stop-color="#0c0d0f"/>
    </radialGradient>
    <linearGradient id="gold" x1="0" y1="0" x2="1" y2="1"><stop stop-color="#ffe486"/><stop offset="1" stop-color="#e9ad32"/></linearGradient>
    <linearGradient id="coral" x1="0" y1="0" x2="1" y2="1"><stop stop-color="#ffaaa1"/><stop offset="1" stop-color="#db625e"/></linearGradient>
    <linearGradient id="mint" x1="0" y1="0" x2="1" y2="1"><stop stop-color="#9be4bd"/><stop offset="1" stop-color="#4aa97a"/></linearGradient>
    <linearGradient id="sky" x1="0" y1="0" x2="1" y2="1"><stop stop-color="#9dd5ff"/><stop offset="1" stop-color="#4c91cf"/></linearGradient>
    <linearGradient id="core" x1="0" y1="0" x2="0" y2="1"><stop stop-color="#383b42"/><stop offset="1" stop-color="#121316"/></linearGradient>
    <filter id="tileShadow" x="-30%" y="-30%" width="160%" height="180%"><feDropShadow dx="0" dy="14" stdDeviation="14" flood-color="#000" flood-opacity=".32"/></filter>
    <filter id="coreShadow" x="-35%" y="-35%" width="170%" height="190%"><feDropShadow dx="0" dy="15" stdDeviation="15" flood-color="#000" flood-opacity=".48"/></filter>
  </defs>
  <rect width="512" height="512" rx="112" fill="url(#bg)"/>
  <path d="M66 176C72 103 123 58 201 52" fill="none" stroke="#fff" stroke-opacity=".09" stroke-width="3"/>
  <g filter="url(#tileShadow)">
    <rect x="78" y="78" width="168" height="168" rx="52" fill="url(#gold)"/>
    <rect x="266" y="78" width="168" height="168" rx="52" fill="url(#coral)"/>
    <rect x="78" y="266" width="168" height="168" rx="52" fill="url(#mint)"/>
    <rect x="266" y="266" width="168" height="168" rx="52" fill="url(#sky)"/>
  </g>
  <g fill="none" stroke="#fff" stroke-linecap="round" opacity=".28" stroke-width="3">
    <path d="M110 116c19-19 49-26 76-23"/><path d="M298 116c19-19 49-26 76-23"/>
    <path d="M110 304c19-19 49-26 76-23"/><path d="M298 304c19-19 49-26 76-23"/>
  </g>
  <circle cx="256" cy="256" r="94" fill="url(#core)" filter="url(#coreShadow)"/>
  <circle cx="256" cy="256" r="91" fill="none" stroke="#fff" stroke-opacity=".1" stroke-width="2"/>
  <path d="m211 258 30 31 63-71" fill="none" stroke="#fff" stroke-linecap="round" stroke-linejoin="round" stroke-width="24"/>
</svg>
